<?xml version="1.0" standalone="no"?><!DOCTYPE svg PUBLIC "-//W3C//DTD SVG 1.1//EN" "http://www.w3.org/Graphics/SVG/1.1/DTD/svg11.dtd"><svg t="1620358086924" class="icon" viewBox="0 0 1024 1024" version="1.1" xmlns="http://www.w3.org/2000/svg" p-id="2829" xmlns:xlink="http://www.w3.org/1999/xlink" width="200" height="200"><defs><style type="text/css"></style></defs><path d="M512 448c-35.296 0-64-28.704-64-64s28.704-64 64-64 64 28.704 64 64-28.704 64-64 64m0-192c-70.592 0-128 57.408-128 128s57.408 128 128 128 128-57.408 128-128-57.408-128-128-128" fill="#181818" p-id="2830"></path><path d="M768 797.632v-69.92a151.904 151.904 0 0 0-151.712-151.68h-208.576A151.904 151.904 0 0 0 256 727.68v69.92C177.632 727.36 128 625.6 128 512 128 299.904 299.936 128 512 128s384 171.904 384 384c0 113.6-49.632 215.36-128 285.632m-448 46.56v-116.48a87.776 87.776 0 0 1 87.712-87.68h208.576A87.776 87.776 0 0 1 704 727.68v116.48a381.568 381.568 0 0 1-384 0m192-780.16C264.96 64 64 264.96 64 512c0 246.976 200.96 448 448 448s448-201.024 448-448c0-247.04-200.96-448-448-448" fill="#181818" p-id="2831"></path></svg>